<?xml version="1.0" encoding="utf-8"?>
<!-- Generator: Adobe Illustrator 22.1.0, SVG Export Plug-In . SVG Version: 6.00 Build 0)  -->
<svg version="1.1" id="Capa_1" xmlns="http://www.w3.org/2000/svg" xmlns:xlink="http://www.w3.org/1999/xlink" x="0px" y="0px"
	 viewBox="0 0 490 490" style="enable-background:new 0 0 490 490;" xml:space="preserve">
<style type="text/css">
	.st0{fill:#CC6633;}
</style>
<g>
	<path class="st0" d="M253.8,291.1c0,0-2.5-5.2-8.8-5.2c-6.2,0-8.7,5.2-8.7,5.2l-65.4,118.2c-2.6,4.8-0.9,10.8,3.8,13.5
		c1.3,0.8,32.3,19,32.3,57.2c0,5.5,4.5,10,10,10H273c5.5,0,10-4.5,10-10c0-38.2,31-56.4,32.3-57.1c4.8-2.7,6.5-8.7,3.8-13.6
		C319.2,409.3,253.8,291.2,253.8,291.1z M263.6,470h-37.2c-3.5-30.8-22.5-50.1-33.7-58.9l42.3-76.4v41.1c0,5.5,4.5,10,10,10
		c5.5,0,10-4.5,10-10v-41.1l42.3,76.4C286.1,419.9,267.1,439.2,263.6,470z"/>
	<path class="st0" d="M447.5,0h-41.9c-5.5,0-10,4.5-10,10v41.9c0,5.5,4.5,10,10,10h8.1c-12.7,70.1-67.5,125.1-137.9,137.8v-8.1
		c0-5.5-4.5-10-10-10h-41.9c-5.5,0-10,4.5-10,10v8.1C143.8,186.9,88.9,132,76.2,61.9h8.2c5.5,0,10-4.5,10-10V10c0-5.5-4.5-10-10-10
		H42.5c-5.5,0-10,4.5-10,10v41.9c0,5.5,4.5,10,10,10h13.4c6.3,38.7,24.7,75.1,52.4,103.3c15,15.3,32.5,27.9,51.5,37.3H91
		c-3.1-4.2-8.1-7-13.7-7c-9.4,0-17,7.6-17,17c0,9.4,7.6,17,17,17c5.6,0,10.6-2.8,13.7-7h123.1v10.9c0,5.5,4.5,10,10,10h41.9
		c5.5,0,10-4.5,10-10v-10.9H399c3.1,4.2,8.1,7,13.7,7c9.4,0,17-7.6,17-17c0-9.4-7.6-17-17-17c-5.6,0-10.6,2.8-13.7,7h-68.9
		c19.1-9.5,36.6-22.1,51.6-37.4c27.6-28.1,46-64.5,52.3-103.2h13.4c5.5,0,10-4.5,10-10V10C457.5,4.5,453,0,447.5,0z M52.5,20h21.9
		v21.9H52.5V20z M255.9,223.4h-21.9v-21.9h21.9L255.9,223.4L255.9,223.4z M437.5,41.9h-21.9V20h21.9V41.9z"/>
</g>
</svg>
