<?xml version="1.0" encoding="utf-8"?>
<!-- Generator: Adobe Illustrator 22.1.0, SVG Export Plug-In . SVG Version: 6.00 Build 0)  -->
<svg version="1.1" id="Capa_1" xmlns="http://www.w3.org/2000/svg" xmlns:xlink="http://www.w3.org/1999/xlink" x="0px" y="0px"
	 viewBox="0 0 96 96" style="enable-background:new 0 0 96 96;" xml:space="preserve">
<style type="text/css">
	.st0{fill:#1E6614;}
</style>
<g>
	<g>
		<rect y="83.4" class="st0" width="96" height="3.4"/>
		<path class="st0" d="M12.3,73.3l14.6-14.6c1.2-1.2,1.7-3,1.4-4.6l3.4-3.4c7.7,5.7,18.6,5.1,25.5-1.8c7.6-7.6,7.6-20,0-27.6
			c-7.6-7.6-20-7.6-27.6,0c-7,7-7.6,17.9-1.8,25.5l-3.4,3.4c-1.6-0.3-3.3,0.1-4.6,1.4L5.1,66.1c-2,2-2,5.2,0,7.2
			C7.1,75.2,10.3,75.2,12.3,73.3z M33.4,25.2c5.4-5.4,14.3-5.4,19.7,0c5.4,5.4,5.4,14.3,0,19.7c-5.4,5.4-14.3,5.4-19.7,0
			C28,39.5,28,30.6,33.4,25.2z"/>
		<rect x="81.5" y="9.1" class="st0" width="7.4" height="72"/>
		<path class="st0" d="M73.5,20.9h-7.4v8.7c0.5,1.9,0.8,3.8,0.8,5.8c0,2-0.3,4-0.8,5.8v39.9h7.4V20.9z"/>
		<path class="st0" d="M50,81.1h7.4V54.2c-2.3,1.7-4.8,3-7.4,3.7V81.1z"/>
		<path class="st0" d="M33.2,81.1h7.4V58.8c-1.3-0.1-2.7-0.4-4-0.8h-3.5V81.1z"/>
		<polygon class="st0" points="16.3,81.1 23.7,81.1 23.7,69.6 21.9,69.6 16.3,75.3 		"/>
	</g>
</g>
</svg>
