<?xml version="1.0" encoding="utf-8"?>
<!-- Generator: Adobe Illustrator 22.1.0, SVG Export Plug-In . SVG Version: 6.00 Build 0)  -->
<svg version="1.1" id="Capa_1" xmlns="http://www.w3.org/2000/svg" xmlns:xlink="http://www.w3.org/1999/xlink" x="0px" y="0px"
	 viewBox="0 0 452.6 452.6" style="enable-background:new 0 0 452.6 452.6;" xml:space="preserve">
<style type="text/css">
	.st0{fill:#303030;}
</style>
<path class="st0" d="M452.6,350.8c-0.4-32.5-8.1-74.4-21.5-118c-25-81-69.1-93.1-93.1-93.1c-8.1,0-16.5,1.3-24.8,3.9
	c-17.5,5.4-31.3,15.2-41,28.7c-5.2-10.3-15.9-17.4-28.1-17.4h-0.2V99.7h26.7c8.8,0,17-3.5,23-9.8c6.1-6.3,9.2-14.6,8.9-23.4
	l-0.8-22.8c-0.4-9.4-8.1-16.9-17.5-16.9c-0.2,0-0.4,0-0.7,0c-9.7,0.4-17.2,8.5-16.8,18.1l0.7,19.6h-26c-17.9,0-32.5,14.6-32.5,32.5
	v57.7h-0.2c-12.3,0-23,7.1-28.1,17.4c-9.7-13.5-23.6-23.3-41-28.7c-8.4-2.6-16.7-3.9-24.8-3.9c-24,0-68.1,12.1-93.1,93.1
	C8.1,276.4,0.4,318.3,0,350.8c-0.7,51.8,17.3,68.3,32.5,73c3.9,1.2,8.1,1.8,12.6,1.8c23,0,52.2-16,80.3-43.8c0,0,0,0,0,0
	c7.2,4.2,15.6,6.6,24.5,6.6c27.2,0,49.3-22.1,49.3-49.3c0-1.2-0.1-2.4-0.1-3.5h56c-0.1,1.2-0.1,2.3-0.1,3.5
	c0,27.2,22.1,49.3,49.3,49.3c8.5,0,16.6-2.2,23.6-6c27.9,27.5,56.9,43.2,79.8,43.2c0,0,0,0,0,0c4.4,0,8.7-0.6,12.5-1.8
	C435.3,419.1,453.2,402.7,452.6,350.8z M99,280.2c-22.3,0-40.5-18.2-40.5-40.5s18.2-40.5,40.5-40.5s40.5,18.2,40.5,40.5
	S121.4,280.2,99,280.2z M149.9,362.6c-13,0-23.5-10.5-23.5-23.5c0-13,10.5-23.5,23.5-23.5s23.5,10.5,23.5,23.5
	C173.4,352.1,162.8,362.6,149.9,362.6z M304.2,362.6c-13,0-23.5-10.5-23.5-23.5c0-13,10.5-23.5,23.5-23.5s23.5,10.5,23.5,23.5
	C327.7,352.1,317.2,362.6,304.2,362.6z M389.1,251.1c3.2,3.2,4.9,7.4,4.9,11.9c0,4.5-1.8,8.7-4.9,11.9c-3.2,3.2-7.4,4.9-11.9,4.9
	s-8.7-1.8-11.9-4.9l-11.4-11.4l-11.4,11.4c-3.2,3.2-7.4,4.9-11.9,4.9s-8.7-1.8-11.9-4.9c-3.2-3.2-4.9-7.4-4.9-11.9
	c0-4.5,1.8-8.7,4.9-11.9l11.4-11.4l-11.4-11.4c-3.2-3.2-4.9-7.4-4.9-11.9c0-4.5,1.8-8.7,4.9-11.9s7.4-4.9,11.9-4.9s8.7,1.8,11.9,4.9
	l11.4,11.4l11.4-11.4c3.2-3.2,7.4-4.9,11.9-4.9s8.7,1.8,11.9,4.9c3.2,3.2,4.9,7.4,4.9,11.9c0,4.5-1.8,8.7-4.9,11.9l-11.4,11.4
	L389.1,251.1z"/>
</svg>
