<?xml version="1.0" encoding="utf-8"?>
<!-- Generator: Adobe Illustrator 22.1.0, SVG Export Plug-In . SVG Version: 6.00 Build 0)  -->
<svg version="1.1" id="Capa_1" xmlns="http://www.w3.org/2000/svg" xmlns:xlink="http://www.w3.org/1999/xlink" x="0px" y="0px"
	 viewBox="0 0 48.7 48.7" style="enable-background:new 0 0 48.7 48.7;" xml:space="preserve">
<style type="text/css">
	.st0{fill:#650E99;}
</style>
<g>
	<g id="_x33_8_89_">
		<g>
			<path class="st0" d="M7.5,24.2h3.4v5.7h0.6c0,0,0,0,0,0h0.6v-5.7h3.5v-1.1h17.1v1.1H36v5.7h0.6c0,0,0,0,0,0h0.6v-5.7h3.7v-0.9
				c0,0,0,0,0,0c0-0.1,0-0.1,0-0.2h5.7v-1.3H41c0-0.1,0-0.1,0-0.2c0,0,0,0,0,0v-0.8h-8.2v1h-7.9v-2.7h-0.7c0,0,0,0,0,0h-0.7v2.7
				h-7.8v-1.1H7.5v1.1H1.1v1.3h6.3C7.5,23.1,7.5,24.2,7.5,24.2z"/>
			<path class="st0" d="M21.5,16.8h5.2v-2.6h7.1V1.6H14.6v12.7h6.9C21.5,14.2,21.5,16.8,21.5,16.8z M16.5,12.3V3.5h15.3v8.8H16.5z"
				/>
			<rect x="18.7" y="16.9" class="st0" width="10.8" height="0.5"/>
			<path class="st0" d="M0,44h6.9v2.6h5.2V44h7.1V31.3H0V44z M2,33.2h15.3V42H2V33.2z"/>
			<rect x="4.1" y="46.6" class="st0" width="10.8" height="0.5"/>
			<path class="st0" d="M29.5,31v12.7h6.9v2.6h5.2v-2.6h7.1V31H29.5z M46.8,41.7H31.4v-8.8h15.3C46.8,32.9,46.8,41.7,46.8,41.7z"/>
			<rect x="33.6" y="46.3" class="st0" width="10.8" height="0.5"/>
		</g>
	</g>
</g>
</svg>
